<svg version="1.1" xmlns="http://www.w3.org/2000/svg" xmlns:xlink="http://www.w3.org/1999/xlink" width="599" height="399"><defs/><g transform="scale(1,1)"><g id="background-55ad68fb"><rect fill="white" stroke="none" x="0" y="0" width="599.9981689453125" height="399.9927673339844" class="dcg-svg-background"/></g><g id="background-images-55ad68fb"/><g id="graphpaper-55ad68fb"><g id="grid-55ad68fb"><g><path fill="none" stroke="rgb(0,0,0)" class="dcg-svg-minor-gridline" paint-order="fill stroke markers" d=" M 37.5 0 L 37.5 399.9927673339844" stroke-opacity="0.12" stroke-miterlimit="10" stroke-dasharray=""/><path fill="none" stroke="rgb(0,0,0)" class="dcg-svg-minor-gridline" paint-order="fill stroke markers" d=" M 112.5 0 L 112.5 399.9927673339844" stroke-opacity="0.12" stroke-miterlimit="10" stroke-dasharray=""/><path fill="none" stroke="rgb(0,0,0)" class="dcg-svg-minor-gridline" paint-order="fill stroke markers" d=" M 149.5 0 L 149.5 399.9927673339844" stroke-opacity="0.12" stroke-miterlimit="10" stroke-dasharray=""/><path fill="none" stroke="rgb(0,0,0)" class="dcg-svg-minor-gridline" paint-order="fill stroke markers" d=" M 187.5 0 L 187.5 399.9927673339844" stroke-opacity="0.12" stroke-miterlimit="10" stroke-dasharray=""/><path fill="none" stroke="rgb(0,0,0)" class="dcg-svg-minor-gridline" paint-order="fill stroke markers" d=" M 224.5 0 L 224.5 399.9927673339844" stroke-opacity="0.12" stroke-miterlimit="10" stroke-dasharray=""/><path fill="none" stroke="rgb(0,0,0)" class="dcg-svg-minor-gridline" paint-order="fill stroke markers" d=" M 262.5 0 L 262.5 399.9927673339844" stroke-opacity="0.12" stroke-miterlimit="10" stroke-dasharray=""/><path fill="none" stroke="rgb(0,0,0)" class="dcg-svg-minor-gridline" paint-order="fill stroke markers" d=" M 299.5 0 L 299.5 399.9927673339844" stroke-opacity="0.12" stroke-miterlimit="10" stroke-dasharray=""/><path fill="none" stroke="rgb(0,0,0)" class="dcg-svg-minor-gridline" paint-order="fill stroke markers" d=" M 337.5 0 L 337.5 399.9927673339844" stroke-opacity="0.12" stroke-miterlimit="10" stroke-dasharray=""/><path fill="none" stroke="rgb(0,0,0)" class="dcg-svg-minor-gridline" paint-order="fill stroke markers" d=" M 374.5 0 L 374.5 399.9927673339844" stroke-opacity="0.12" stroke-miterlimit="10" stroke-dasharray=""/><path fill="none" stroke="rgb(0,0,0)" class="dcg-svg-minor-gridline" paint-order="fill stroke markers" d=" M 412.5 0 L 412.5 399.9927673339844" stroke-opacity="0.12" stroke-miterlimit="10" stroke-dasharray=""/><path fill="none" stroke="rgb(0,0,0)" class="dcg-svg-minor-gridline" paint-order="fill stroke markers" d=" M 449.5 0 L 449.5 399.9927673339844" stroke-opacity="0.12" stroke-miterlimit="10" stroke-dasharray=""/><path fill="none" stroke="rgb(0,0,0)" class="dcg-svg-minor-gridline" paint-order="fill stroke markers" d=" M 487.5 0 L 487.5 399.9927673339844" stroke-opacity="0.12" stroke-miterlimit="10" stroke-dasharray=""/><path fill="none" stroke="rgb(0,0,0)" class="dcg-svg-minor-gridline" paint-order="fill stroke markers" d=" M 524.5 0 L 524.5 399.9927673339844" stroke-opacity="0.12" stroke-miterlimit="10" stroke-dasharray=""/><path fill="none" stroke="rgb(0,0,0)" class="dcg-svg-minor-gridline" paint-order="fill stroke markers" d=" M 562.5 0 L 562.5 399.9927673339844" stroke-opacity="0.12" stroke-miterlimit="10" stroke-dasharray=""/><path fill="none" stroke="rgb(0,0,0)" class="dcg-svg-minor-gridline" paint-order="fill stroke markers" d=" M 0 387.5 L 599.9981689453125 387.5" stroke-opacity="0.12" stroke-miterlimit="10" stroke-dasharray=""/><path fill="none" stroke="rgb(0,0,0)" class="dcg-svg-minor-gridline" paint-order="fill stroke markers" d=" M 0 312.5 L 599.9981689453125 312.5" stroke-opacity="0.12" stroke-miterlimit="10" stroke-dasharray=""/><path fill="none" stroke="rgb(0,0,0)" class="dcg-svg-minor-gridline" paint-order="fill stroke markers" d=" M 0 274.5 L 599.9981689453125 274.5" stroke-opacity="0.12" stroke-miterlimit="10" stroke-dasharray=""/><path fill="none" stroke="rgb(0,0,0)" class="dcg-svg-minor-gridline" paint-order="fill stroke markers" d=" M 0 237.5 L 599.9981689453125 237.5" stroke-opacity="0.12" stroke-miterlimit="10" stroke-dasharray=""/><path fill="none" stroke="rgb(0,0,0)" class="dcg-svg-minor-gridline" paint-order="fill stroke markers" d=" M 0 199.5 L 599.9981689453125 199.5" stroke-opacity="0.12" stroke-miterlimit="10" stroke-dasharray=""/><path fill="none" stroke="rgb(0,0,0)" class="dcg-svg-minor-gridline" paint-order="fill stroke markers" d=" M 0 162.5 L 599.9981689453125 162.5" stroke-opacity="0.12" stroke-miterlimit="10" stroke-dasharray=""/><path fill="none" stroke="rgb(0,0,0)" class="dcg-svg-minor-gridline" paint-order="fill stroke markers" d=" M 0 124.5 L 599.9981689453125 124.5" stroke-opacity="0.12" stroke-miterlimit="10" stroke-dasharray=""/><path fill="none" stroke="rgb(0,0,0)" class="dcg-svg-minor-gridline" paint-order="fill stroke markers" d=" M 0 87.5 L 599.9981689453125 87.5" stroke-opacity="0.12" stroke-miterlimit="10" stroke-dasharray=""/><path fill="none" stroke="rgb(0,0,0)" class="dcg-svg-minor-gridline" paint-order="fill stroke markers" d=" M 0 49.5 L 599.9981689453125 49.5" stroke-opacity="0.12" stroke-miterlimit="10" stroke-dasharray=""/><path fill="none" stroke="rgb(0,0,0)" class="dcg-svg-minor-gridline" paint-order="fill stroke markers" d=" M 0 12.5 L 599.9981689453125 12.5" stroke-opacity="0.12" stroke-miterlimit="10" stroke-dasharray=""/><path fill="none" stroke="rgb(0,0,0)" class="dcg-svg-major-gridline" paint-order="fill stroke markers" d=" M 224.5 0 L 224.5 399.9927673339844" stroke-opacity="0.31818181818181823" stroke-miterlimit="10" stroke-dasharray=""/><path fill="none" stroke="rgb(0,0,0)" class="dcg-svg-major-gridline" paint-order="fill stroke markers" d=" M 374.5 0 L 374.5 399.9927673339844" stroke-opacity="0.31818181818181823" stroke-miterlimit="10" stroke-dasharray=""/><path fill="none" stroke="rgb(0,0,0)" class="dcg-svg-major-gridline" paint-order="fill stroke markers" d=" M 524.5 0 L 524.5 399.9927673339844" stroke-opacity="0.31818181818181823" stroke-miterlimit="10" stroke-dasharray=""/><path fill="none" stroke="rgb(0,0,0)" class="dcg-svg-major-gridline" paint-order="fill stroke markers" d=" M 0 199.5 L 599.9981689453125 199.5" stroke-opacity="0.31818181818181823" stroke-miterlimit="10" stroke-dasharray=""/><path fill="none" stroke="rgb(0,0,0)" class="dcg-svg-major-gridline" paint-order="fill stroke markers" d=" M 0 49.5 L 599.9981689453125 49.5" stroke-opacity="0.31818181818181823" stroke-miterlimit="10" stroke-dasharray=""/></g></g><g id="axis-55ad68fb"><g id="yaxis-55ad68fb"><title>Y axis</title><g><path fill="none" stroke="rgb(0,0,0)" class="dcg-svg-axis-line" paint-order="fill stroke markers" d=" M 74.75 0 L 74.75 399.9927673339844" stroke-opacity="0.9" stroke-miterlimit="10" stroke-width="1.5" stroke-dasharray=""/></g></g><g id="xaxis-55ad68fb"><title>X axis</title><g><path fill="none" stroke="rgb(0,0,0)" class="dcg-svg-axis-line" paint-order="fill stroke markers" d=" M 0 349.75 L 599.9981689453125 349.75" stroke-opacity="0.9" stroke-miterlimit="10" stroke-width="1.5" stroke-dasharray=""/></g></g><g><g class="dcg-svg-axis-value"><text fill="none" stroke="#ffffff" font-family="Arial" font-size="14px" font-style="normal" font-weight="normal" text-decoration="normal" x="66.10670471191406" y="365.8039259033203" text-anchor="middle" stroke-miterlimit="2" stroke-width="3" stroke-dasharray="">0</text><text fill="#000000" stroke="none" font-family="Arial" font-size="14px" font-style="normal" font-weight="normal" text-decoration="normal" x="66.10670471191406" y="365.8039259033203" text-anchor="middle">0</text></g><g class="dcg-svg-axis-value"><text fill="none" stroke="#ffffff" font-family="Arial" font-size="14px" font-style="normal" font-weight="normal" text-decoration="normal" x="224.9993133544922" y="365.8039259033203" text-anchor="middle" stroke-miterlimit="2" stroke-width="3" stroke-dasharray="">2</text><text fill="#000000" stroke="none" font-family="Arial" font-size="14px" font-style="normal" font-weight="normal" text-decoration="normal" x="224.9993133544922" y="365.8039259033203" text-anchor="middle">2</text></g><g class="dcg-svg-axis-value"><text fill="none" stroke="#ffffff" font-family="Arial" font-size="14px" font-style="normal" font-weight="normal" text-decoration="normal" x="374.9988555908203" y="365.8039259033203" text-anchor="middle" stroke-miterlimit="2" stroke-width="3" stroke-dasharray="">4</text><text fill="#000000" stroke="none" font-family="Arial" font-size="14px" font-style="normal" font-weight="normal" text-decoration="normal" x="374.9988555908203" y="365.8039259033203" text-anchor="middle">4</text></g><g class="dcg-svg-axis-value"><text fill="none" stroke="#ffffff" font-family="Arial" font-size="14px" font-style="normal" font-weight="normal" text-decoration="normal" x="524.9983978271484" y="365.8039259033203" text-anchor="middle" stroke-miterlimit="2" stroke-width="3" stroke-dasharray="">6</text><text fill="#000000" stroke="none" font-family="Arial" font-size="14px" font-style="normal" font-weight="normal" text-decoration="normal" x="524.9983978271484" y="365.8039259033203" text-anchor="middle">6</text></g><g class="dcg-svg-axis-value"><text fill="none" stroke="#ffffff" font-family="Arial" font-size="14px" font-style="normal" font-weight="normal" text-decoration="normal" x="66.10670471191406" y="203.80438366699218" text-anchor="middle" stroke-miterlimit="2" stroke-width="3" stroke-dasharray="">2</text><text fill="#000000" stroke="none" font-family="Arial" font-size="14px" font-style="normal" font-weight="normal" text-decoration="normal" x="66.10670471191406" y="203.80438366699218" text-anchor="middle">2</text></g><g class="dcg-svg-axis-value"><text fill="none" stroke="#ffffff" font-family="Arial" font-size="14px" font-style="normal" font-weight="normal" text-decoration="normal" x="66.10670471191406" y="53.80484143066406" text-anchor="middle" stroke-miterlimit="2" stroke-width="3" stroke-dasharray="">4</text><text fill="#000000" stroke="none" font-family="Arial" font-size="14px" font-style="normal" font-weight="normal" text-decoration="normal" x="66.10670471191406" y="53.80484143066406" text-anchor="middle">4</text></g></g></g></g><g id="expressions-55ad68fb"><g id="sketch-55ad68fb"><title>Expression 1</title><path fill="#2d70b3" stroke="none" paint-order="stroke fill markers" d="" fill-opacity="0.4"/><g><path fill="none" stroke="#2d70b3" class="dcg-svg-curve" paint-order="fill stroke markers" d=" M 0 349.9959259033203 L 0 349.9959259033203 L 74.99977111816406 349.9209261322021 L 299.99908447265625 49.99684143066406 L 525.1448817551136 349.9959259033203 L 599.9981689453125 349.9959259033203" stroke-linecap="round" stroke-linejoin="round" stroke-miterlimit="10" stroke-width="2.5" stroke-dasharray=""/></g></g><g id="sketch-55ad68fb"><title>Expression 2</title><path fill="#388c46" stroke="none" paint-order="stroke fill markers" d="" fill-opacity="0.4"/><g><path fill="none" stroke="#388c46" class="dcg-svg-curve" paint-order="fill stroke markers" d=" M 0 349.9949210169454 L 0 349.9949210169454 L 60.79083010554314 349.84423836743053 L 77.48999789357185 349.5177450901884 L 88.62277641892433 349.02292279357914 L 97.26532816886902 348.35743868498116 L 104.44304063916206 347.5204633436946 L 110.74184954166412 346.4933837778528 L 116.30823880434036 345.2916112259699 L 121.43517628312111 343.8826481394661 L 126.26914590597153 342.23622315153324 L 130.81014767289162 340.36062924281464 L 135.20466551184654 338.19721798816886 L 139.4526994228363 335.738138359766 L 143.70073333382607 332.87604833250884 L 147.94876724481583 329.5699532744928 L 152.1968011558056 325.77997135317617 L 156.5913189947605 321.31022439277655 L 160.98583683371544 316.245370337628 L 165.2338707447052 310.7544768287313 L 169.48190465569496 304.65766311822426 L 173.72993856668472 297.94276766680565 L 178.12445640563965 290.34393222961495 L 182.66545817255974 281.80654831453194 L 187.49942779541016 271.98521728887977 L 192.6263652741909 260.80532147189814 L 198.3392384648323 247.54013070574305 L 205.07749915122986 231.038243575739 L 215.47785803675652 204.59019943662716 L 225.87821692228317 178.41627530483856 L 232.03054189682007 163.78493868614004 L 237.15747937560081 152.39733386769984 L 241.6984811425209 143.08281906277423 L 245.8000311255455 135.3902165148358 L 249.60861325263977 128.9213447132495 L 253.27071145176888 123.35433996129532 L 256.7863257229328 118.63783941781747 L 260.1554560661316 114.70849891455867 L 263.52458640933037 111.36177583628648 L 266.747232824564 108.70265962921081 L 269.8233953118324 106.65024212617664 L 272.7530738711357 105.12463727767312 L 275.53626850247383 104.04919966050687 L 278.1729792058468 103.3521049345758 L 280.80968990921974 102.9527120359889 L 283.59288454055786 102.8357720475737 L 286.376079171896 103.01118669896903 L 289.30575773119926 103.48764667360086 L 292.5284041464329 104.32678557462529 L 295.89753448963165 105.52034873346798 L 299.7061166167259 107.21102905963744 L 303.9541505277157 109.46244353473827 L 308.7881201505661 112.41370289283225 L 314.35450941324234 116.2273975921326 L 320.79980224370956 121.09192021161954 L 327.83103078603745 126.87386837652542 L 334.8622593283653 133.154358418012 L 341.4540360867977 139.56425479991665 L 347.7528449892998 146.25892878348242 L 353.61220210790634 153.07739362360087 L 359.1785913705826 160.1523722813347 L 364.59849670529366 167.64575264973254 L 370.01840204000473 175.75544612564812 L 375.58479130268097 184.71666231500737 L 381.5906323492527 195.05436348398217 L 388.32889303565025 207.3594638543458 L 396.6784769296646 223.35189859056237 L 419.2370018362999 266.95128034260955 L 425.8287785947323 278.7426982821962 L 431.68813571333885 288.5438860436744 L 437.1080410480499 296.94416846061335 L 442.2349785268307 304.2467473453289 L 447.21543207764626 310.7125340728853 L 452.0494017004967 316.38578901504263 L 456.8833713233471 321.46929857555153 L 461.7173409461975 325.97829557527683 L 466.40482664108276 329.82547051560834 L 471.092312335968 333.1853882056672 L 475.6333141028881 336.00828357088164 L 480.32079979777336 338.51321025108905 L 485.0082854926586 340.64192870129165 L 489.84225511550903 342.485683424668 L 494.9691925942898 344.09897793083485 L 500.38909792900085 345.4750638448763 L 506.2484550476074 346.643266617264 L 512.6937478780746 347.6164319226875 L 520.0179442763329 348.41277618826206 L 528.5140120983124 349.0323126732301 L 539.0608549118042 349.4938499166187 L 553.2697959244251 349.7999448445408 L 575.9748047590256 349.95836618584383 L 599.9981689453125 349.99056865512523" stroke-linecap="round" stroke-linejoin="round" stroke-miterlimit="10" stroke-width="2.5" stroke-dasharray=""/></g></g><g id="sketch-55ad68fb"><title>Expression 3</title><path fill="#6042a6" stroke="none" paint-order="stroke fill markers" d="" fill-opacity="0.4"/><g><path fill="none" stroke="#6042a6" class="dcg-svg-curve" paint-order="fill stroke markers" d=" M 0 349.9959259033203 L 0 349.9959259033203 L 599.9981689453125 349.9959259033203" stroke-linecap="round" stroke-linejoin="round" stroke-miterlimit="10" stroke-width="2.5" stroke-dasharray=""/></g><path fill="#6042a6" stroke="none" paint-order="stroke fill markers" d="" fill-opacity="0.4"/><g><path fill="none" stroke="#6042a6" class="dcg-svg-curve" paint-order="fill stroke markers" d=" M 0 349.9949210169454 L 0 349.9949210169454 L 60.79083010554314 349.84423836743053 L 77.48999789357185 349.5177450901884 L 88.62277641892433 349.02292279357914 L 97.26532816886902 348.35743868498116 L 104.44304063916206 347.5204633436946 L 110.74184954166412 346.4933837778528 L 116.30823880434036 345.2916112259699 L 121.43517628312111 343.8826481394661 L 126.26914590597153 342.23622315153324 L 130.81014767289162 340.36062924281464 L 135.20466551184654 338.19721798816886 L 139.4526994228363 335.738138359766 L 143.70073333382607 332.87604833250884 L 147.94876724481583 329.5699532744928 L 152.1968011558056 325.77997135317617 L 156.5913189947605 321.31022439277655 L 160.98583683371544 316.245370337628 L 165.2338707447052 310.7544768287313 L 169.48190465569496 304.65766311822426 L 173.72993856668472 297.94276766680565 L 178.12445640563965 290.34393222961495 L 182.66545817255974 281.80654831453194 L 187.49942779541016 271.98521728887977 L 192.6263652741909 260.80532147189814 L 198.3392384648323 247.54013070574305 L 205.07749915122986 231.038243575739 L 215.47785803675652 204.59019943662716 L 225.87821692228317 178.41627530483856 L 232.03054189682007 163.78493868614004 L 237.15747937560081 152.39733386769984 L 241.6984811425209 143.08281906277423 L 245.8000311255455 135.3902165148358 L 249.60861325263977 128.9213447132495 L 253.27071145176888 123.35433996129532 L 256.7863257229328 118.63783941781747 L 260.1554560661316 114.70849891455867 L 263.52458640933037 111.36177583628648 L 266.747232824564 108.70265962921081 L 269.8233953118324 106.65024212617664 L 272.7530738711357 105.12463727767312 L 275.53626850247383 104.04919966050687 L 278.1729792058468 103.3521049345758 L 280.80968990921974 102.9527120359889 L 283.59288454055786 102.8357720475737 L 286.376079171896 103.01118669896903 L 289.30575773119926 103.48764667360086 L 292.5284041464329 104.32678557462529 L 295.89753448963165 105.52034873346798 L 299.7061166167259 107.21102905963744 L 303.9541505277157 109.46244353473827 L 308.7881201505661 112.41370289283225 L 314.35450941324234 116.2273975921326 L 320.79980224370956 121.09192021161954 L 327.83103078603745 126.87386837652542 L 334.8622593283653 133.154358418012 L 341.4540360867977 139.56425479991665 L 347.7528449892998 146.25892878348242 L 353.61220210790634 153.07739362360087 L 359.1785913705826 160.1523722813347 L 364.59849670529366 167.64575264973254 L 370.01840204000473 175.75544612564812 L 375.58479130268097 184.71666231500737 L 381.5906323492527 195.05436348398217 L 388.32889303565025 207.3594638543458 L 396.6784769296646 223.35189859056237 L 419.2370018362999 266.95128034260955 L 425.8287785947323 278.7426982821962 L 431.68813571333885 288.5438860436744 L 437.1080410480499 296.94416846061335 L 442.2349785268307 304.2467473453289 L 447.21543207764626 310.7125340728853 L 452.0494017004967 316.38578901504263 L 456.8833713233471 321.46929857555153 L 461.7173409461975 325.97829557527683 L 466.40482664108276 329.82547051560834 L 471.092312335968 333.1853882056672 L 475.6333141028881 336.00828357088164 L 480.32079979777336 338.51321025108905 L 485.0082854926586 340.64192870129165 L 489.84225511550903 342.485683424668 L 494.9691925942898 344.09897793083485 L 500.38909792900085 345.4750638448763 L 506.2484550476074 346.643266617264 L 512.6937478780746 347.6164319226875 L 520.0179442763329 348.41277618826206 L 528.5140120983124 349.0323126732301 L 539.0608549118042 349.4938499166187 L 553.2697959244251 349.7999448445408 L 575.9748047590256 349.95836618584383 L 599.9981689453125 349.99056865512523" stroke-linecap="round" stroke-linejoin="round" stroke-miterlimit="10" stroke-width="2.5" stroke-dasharray=""/></g><path fill="#6042a6" stroke="none" class="dcg-svg-region" paint-order="stroke fill markers" d=" M 0 349.9959259033203 L 599.9981689453125 349.9959259033203 L 599.9981689453125 349.99056865512523 L 575.9748047590256 349.95836618584383 L 553.2697959244251 349.7999448445408 L 539.0608549118042 349.4938499166187 L 528.5140120983124 349.0323126732301 L 520.0179442763329 348.41277618826206 L 512.6937478780746 347.6164319226875 L 506.2484550476074 346.643266617264 L 500.38909792900085 345.4750638448763 L 494.9691925942898 344.09897793083485 L 489.84225511550903 342.485683424668 L 485.0082854926586 340.64192870129165 L 480.32079979777336 338.51321025108905 L 475.6333141028881 336.00828357088164 L 471.092312335968 333.1853882056672 L 466.40482664108276 329.82547051560834 L 461.7173409461975 325.97829557527683 L 456.8833713233471 321.46929857555153 L 452.0494017004967 316.38578901504263 L 447.21543207764626 310.7125340728853 L 442.2349785268307 304.2467473453289 L 437.1080410480499 296.94416846061335 L 431.68813571333885 288.5438860436744 L 425.8287785947323 278.7426982821962 L 419.2370018362999 266.95128034260955 L 396.6784769296646 223.35189859056237 L 388.32889303565025 207.3594638543458 L 381.5906323492527 195.05436348398217 L 375.58479130268097 184.71666231500737 L 370.01840204000473 175.75544612564812 L 364.59849670529366 167.64575264973254 L 359.1785913705826 160.1523722813347 L 353.61220210790634 153.07739362360087 L 347.7528449892998 146.25892878348242 L 341.4540360867977 139.56425479991665 L 334.8622593283653 133.154358418012 L 327.83103078603745 126.87386837652542 L 320.79980224370956 121.09192021161954 L 314.35450941324234 116.2273975921326 L 308.7881201505661 112.41370289283225 L 303.9541505277157 109.46244353473827 L 299.7061166167259 107.21102905963744 L 295.89753448963165 105.52034873346798 L 292.5284041464329 104.32678557462529 L 289.30575773119926 103.48764667360086 L 286.376079171896 103.01118669896903 L 283.59288454055786 102.8357720475737 L 280.80968990921974 102.9527120359889 L 278.1729792058468 103.3521049345758 L 275.53626850247383 104.04919966050687 L 272.7530738711357 105.12463727767312 L 269.8233953118324 106.65024212617664 L 266.747232824564 108.70265962921081 L 263.52458640933037 111.36177583628648 L 260.1554560661316 114.70849891455867 L 256.7863257229328 118.63783941781747 L 253.27071145176888 123.35433996129532 L 249.60861325263977 128.9213447132495 L 245.8000311255455 135.3902165148358 L 241.6984811425209 143.08281906277423 L 237.15747937560081 152.39733386769984 L 232.03054189682007 163.78493868614004 L 225.87821692228317 178.41627530483856 L 215.47785803675652 204.59019943662716 L 205.07749915122986 231.038243575739 L 198.3392384648323 247.54013070574305 L 192.6263652741909 260.80532147189814 L 187.49942779541016 271.98521728887977 L 182.66545817255974 281.80654831453194 L 178.12445640563965 290.34393222961495 L 173.72993856668472 297.94276766680565 L 169.48190465569496 304.65766311822426 L 165.2338707447052 310.7544768287313 L 160.98583683371544 316.245370337628 L 156.5913189947605 321.31022439277655 L 152.1968011558056 325.77997135317617 L 147.94876724481583 329.5699532744928 L 143.70073333382607 332.87604833250884 L 139.4526994228363 335.738138359766 L 135.20466551184654 338.19721798816886 L 130.81014767289162 340.36062924281464 L 126.26914590597153 342.23622315153324 L 121.43517628312111 343.8826481394661 L 116.30823880434036 345.2916112259699 L 110.74184954166412 346.4933837778528 L 104.44304063916206 347.5204633436946 L 97.26532816886902 348.35743868498116 L 88.62277641892433 349.02292279357914 L 77.48999789357185 349.5177450901884 L 60.79083010554314 349.84423836743053 L 0 349.9949210169454 L 0 349.9959259033203" fill-opacity="0.4"/></g><g id="sketch-55ad68fb"><title>Expression 4</title><path fill="#000000" stroke="none" paint-order="stroke fill markers" d="" fill-opacity="0.4"/><g><path fill="none" stroke="#000000" class="dcg-svg-curve" paint-order="fill stroke markers" d=" M 75.25286207072503 349.58355589243837 L 75.25286207072503 349.58355589243837 L 87.01145321130753 349.11560065687064 L 95.94697281718254 348.4800527107938 L 103.41765314340591 347.65956081476156 L 109.86294597387314 346.6561394611811 L 115.57581916451454 345.4678673444738 L 120.70275664329529 344.1038559987219 L 125.5367262661457 342.5076197101043 L 130.0777280330658 340.68666917617725 L 134.47224587202072 338.5834748830169 L 138.72027978301048 336.18972118116307 L 142.96831369400024 333.40005364777215 L 147.21634760499 330.1734029255066 L 151.46438151597977 326.46960856233375 L 155.8588993549347 322.0955717095958 L 160.25341719388962 317.1322443473149 L 164.50145110487938 311.7439319959924 L 168.74948501586914 305.7527168281613 L 172.9975189268589 299.1448299070179 L 177.39203676581383 291.6561892611445 L 181.93303853273392 283.22969313622946 L 186.62052422761917 273.82496374201367 L 191.60097777843475 263.10005526824335 L 197.167367041111 250.32298452920685 L 203.61265987157822 234.68836398239625 L 212.54817947745323 212.08783501058048 L 225.731732994318 178.77485373261578 L 231.8840579688549 164.1221852429995 L 237.01099544763565 152.71060693228833 L 241.55199721455574 143.37070091106392 L 245.65354719758034 135.65232182446942 L 249.4621293246746 129.15756742182944 L 253.1242275238037 123.56434583455166 L 256.63984179496765 118.82185802549719 L 260.0089721381664 114.86722868306117 L 263.3781024813652 111.49518989671472 L 266.6007488965988 108.81214148491458 L 269.67691138386726 106.7373952533942 L 272.60658994317055 105.19119888731228 L 275.38978457450867 104.09696714044861 L 278.0264952778816 103.38287582140234 L 280.6632059812546 102.96736641981687 L 283.4464006125927 102.83445063794957 L 286.2295952439308 102.99501628973692 L 289.1592738032341 103.45710688088184 L 292.23543629050255 104.23773628830466 L 295.6045666337013 105.40469468771624 L 299.4131487607956 107.06926237383598 L 303.66118267178535 109.29611844396223 L 308.4951522946358 112.22449787996797 L 314.061541557312 116.01705033626482 L 320.3603504598141 120.746593703836 L 327.2450950741768 126.3735902203183 L 334.27632361650467 132.61043747200702 L 341.0145843029022 139.11918656449552 L 347.3133932054043 145.77159807843117 L 353.17275032401085 152.54442826689726 L 358.7391395866871 159.5713986952187 L 364.15904492139816 167.01531233477147 L 369.57895025610924 175.07495440990252 L 375.1453395187855 183.9866725552595 L 381.1511805653572 194.27620671826585 L 387.7429573237896 206.26416783412154 L 395.9460572898388 221.92653808797155 L 420.1159054040909 268.5641063738623 L 426.5611982345581 280.0055863810894 L 432.2740714251995 289.4842098869036 L 437.5474928319454 297.59520337267844 L 442.67443031072617 304.8424325385923 L 447.65488386154175 311.2528411759068 L 452.48885348439217 316.8721444483088 L 457.3228231072426 321.9026368625502 L 462.156792730093 326.36051034493653 L 466.84427842497826 330.16065743512144 L 471.5317641198635 333.47660522881097 L 476.0727658867836 336.26018312930177 L 480.76025158166885 338.72813617180805 L 485.4477372765541 340.8236487238937 L 490.2817068994045 342.637087284293 L 495.4086443781853 344.2224446891966 L 500.82854971289635 345.57343838291604 L 506.6879068315029 346.71920415527325 L 513.1331996619701 347.67265682667033 L 520.4573960602283 348.45194549744355 L 524.1169899813592 348.7460094737652" stroke-linecap="round" stroke-linejoin="round" stroke-miterlimit="10" stroke-width="2.5" stroke-dasharray=""/></g><path fill="#000000" stroke="none" paint-order="stroke fill markers" d="" fill-opacity="0.4"/><g><path fill="none" stroke="#000000" class="dcg-svg-curve" paint-order="fill stroke markers" d=" M 75.25286207072503 349.58355589243837 L 75.25286207072503 349.58355589243837 L 299.99908447265625 49.99684143066406 L 524.1169899813592 348.7460094737652" stroke-linecap="round" stroke-linejoin="round" stroke-miterlimit="10" stroke-width="2.5" stroke-dasharray=""/></g><path fill="#000000" stroke="none" class="dcg-svg-region" paint-order="stroke fill markers" d=" M 75.25286207072503 349.58355589243837 L 87.01145321130753 349.11560065687064 L 95.94697281718254 348.4800527107938 L 103.41765314340591 347.65956081476156 L 109.86294597387314 346.6561394611811 L 115.57581916451454 345.4678673444738 L 120.70275664329529 344.1038559987219 L 125.5367262661457 342.5076197101043 L 130.0777280330658 340.68666917617725 L 134.47224587202072 338.5834748830169 L 138.72027978301048 336.18972118116307 L 142.96831369400024 333.40005364777215 L 147.21634760499 330.1734029255066 L 151.46438151597977 326.46960856233375 L 155.8588993549347 322.0955717095958 L 160.25341719388962 317.1322443473149 L 164.50145110487938 311.7439319959924 L 168.74948501586914 305.7527168281613 L 172.9975189268589 299.1448299070179 L 177.39203676581383 291.6561892611445 L 181.93303853273392 283.22969313622946 L 186.62052422761917 273.82496374201367 L 191.60097777843475 263.10005526824335 L 197.167367041111 250.32298452920685 L 203.61265987157822 234.68836398239625 L 212.54817947745323 212.08783501058048 L 225.731732994318 178.77485373261578 L 231.8840579688549 164.1221852429995 L 237.01099544763565 152.71060693228833 L 241.55199721455574 143.37070091106392 L 245.65354719758034 135.65232182446942 L 249.4621293246746 129.15756742182944 L 253.1242275238037 123.56434583455166 L 256.63984179496765 118.82185802549719 L 260.0089721381664 114.86722868306117 L 263.3781024813652 111.49518989671472 L 266.6007488965988 108.81214148491458 L 269.67691138386726 106.7373952533942 L 272.60658994317055 105.19119888731228 L 275.38978457450867 104.09696714044861 L 278.0264952778816 103.38287582140234 L 280.6632059812546 102.96736641981687 L 283.4464006125927 102.83445063794957 L 286.2295952439308 102.99501628973692 L 289.1592738032341 103.45710688088184 L 292.23543629050255 104.23773628830466 L 295.6045666337013 105.40469468771624 L 299.4131487607956 107.06926237383598 L 303.66118267178535 109.29611844396223 L 308.4951522946358 112.22449787996797 L 314.061541557312 116.01705033626482 L 320.3603504598141 120.746593703836 L 327.2450950741768 126.3735902203183 L 334.27632361650467 132.61043747200702 L 341.0145843029022 139.11918656449552 L 347.3133932054043 145.77159807843117 L 353.17275032401085 152.54442826689726 L 358.7391395866871 159.5713986952187 L 364.15904492139816 167.01531233477147 L 369.57895025610924 175.07495440990252 L 375.1453395187855 183.9866725552595 L 381.1511805653572 194.27620671826585 L 387.7429573237896 206.26416783412154 L 395.9460572898388 221.92653808797155 L 420.1159054040909 268.5641063738623 L 426.5611982345581 280.0055863810894 L 432.2740714251995 289.4842098869036 L 437.5474928319454 297.59520337267844 L 442.67443031072617 304.8424325385923 L 447.65488386154175 311.2528411759068 L 452.48885348439217 316.8721444483088 L 457.3228231072426 321.9026368625502 L 462.156792730093 326.36051034493653 L 466.84427842497826 330.16065743512144 L 471.5317641198635 333.47660522881097 L 476.0727658867836 336.26018312930177 L 480.76025158166885 338.72813617180805 L 485.4477372765541 340.8236487238937 L 490.2817068994045 342.637087284293 L 495.4086443781853 344.2224446891966 L 500.82854971289635 345.57343838291604 L 506.6879068315029 346.71920415527325 L 513.1331996619701 347.67265682667033 L 520.4573960602283 348.45194549744355 L 524.1169899813592 348.7460094737652 L 524.1169899813592 348.7460094737652 L 299.99908447265625 49.99684143066406 L 75.25286207072503 349.58355589243837 L 75.25286207072503 349.58355589243837" fill-opacity="0.4"/></g><g id="sketch-55ad68fb"><title>A</title></g><g id="sketch-55ad68fb"><title>B</title></g></g><path fill="none" stroke="#c74440" class="dcg-svg-point" paint-order="fill stroke markers" d=" M 299.8990844726562 79.8967498779297 L 299.8990844726562 80.09674987792968 L 300.0990844726563 80.09674987792968 L 300.0990844726563 79.8967498779297" stroke-linecap="round" stroke-linejoin="round" stroke-miterlimit="10" stroke-width="8" stroke-dasharray=""/><path fill="none" stroke="#2d70b3" class="dcg-svg-point" paint-order="fill stroke markers" d=" M 299.8990844726562 237.39626922607422 L 299.8990844726562 237.5962692260742 L 300.0990844726563 237.5962692260742 L 300.0990844726563 237.39626922607422" stroke-linecap="round" stroke-linejoin="round" stroke-miterlimit="10" stroke-width="8" stroke-dasharray=""/><g id="labels-55ad68fb"><g transform="rotate(0,0,0) translate(299.99908447265625,79.99674987792969)"><g class="dcg-svg-label"><g transform="translate(-21.2764892578125,-28.939823150634766)"><g><text fill="none" stroke="#FFF" font-family="arial, sans-serif" font-size="15.4px" font-style="normal" font-weight="400" text-decoration="normal" x="0" y="13.849910687255859" text-anchor="start" stroke-linecap="round" stroke-linejoin="round" stroke-miterlimit="2" stroke-width="3" stroke-dasharray="">A</text></g></g><g transform="translate(-21.2764892578125,-28.939823150634766)"><g><text fill="rgb(199, 68, 64)" stroke="none" font-family="arial, sans-serif" font-size="15.4px" font-style="normal" font-weight="400" text-decoration="normal" x="0" y="13.849910687255859" text-anchor="start">A</text></g></g></g></g><g transform="rotate(0,0,0) translate(299.99908447265625,237.49626922607422)"><g class="dcg-svg-label"><g transform="translate(17.9954833984375,-9.468925476074219)"><g><text fill="none" stroke="#FFF" font-family="arial, sans-serif" font-size="15.4px" font-style="normal" font-weight="400" text-decoration="normal" x="0" y="13.849914501953124" text-anchor="start" stroke-linecap="round" stroke-linejoin="round" stroke-miterlimit="2" stroke-width="3" stroke-dasharray="">B</text></g></g><g transform="translate(17.9954833984375,-9.468925476074219)"><g><text fill="rgb(45, 112, 179)" stroke="none" font-family="arial, sans-serif" font-size="15.4px" font-style="normal" font-weight="400" text-decoration="normal" x="0" y="13.849914501953124" text-anchor="start">B</text></g></g></g></g></g></g></svg>