<svg version="1.1" xmlns="http://www.w3.org/2000/svg" xmlns:xlink="http://www.w3.org/1999/xlink" width="599" height="399"><defs/><g transform="scale(1,1)"><g id="background-3550d603"><rect fill="white" stroke="none" x="0" y="0" width="599.9981689453125" height="399.9927673339844" class="dcg-svg-background"/></g><g id="background-images-3550d603"/><g id="graphpaper-3550d603"><g id="grid-3550d603"><g><path fill="none" stroke="rgb(0,0,0)" class="dcg-svg-minor-gridline" paint-order="fill stroke markers" d=" M 37.5 0 L 37.5 399.9927673339844" stroke-opacity="0.12" stroke-miterlimit="10" stroke-dasharray=""/><path fill="none" stroke="rgb(0,0,0)" class="dcg-svg-minor-gridline" paint-order="fill stroke markers" d=" M 112.5 0 L 112.5 399.9927673339844" stroke-opacity="0.12" stroke-miterlimit="10" stroke-dasharray=""/><path fill="none" stroke="rgb(0,0,0)" class="dcg-svg-minor-gridline" paint-order="fill stroke markers" d=" M 149.5 0 L 149.5 399.9927673339844" stroke-opacity="0.12" stroke-miterlimit="10" stroke-dasharray=""/><path fill="none" stroke="rgb(0,0,0)" class="dcg-svg-minor-gridline" paint-order="fill stroke markers" d=" M 187.5 0 L 187.5 399.9927673339844" stroke-opacity="0.12" stroke-miterlimit="10" stroke-dasharray=""/><path fill="none" stroke="rgb(0,0,0)" class="dcg-svg-minor-gridline" paint-order="fill stroke markers" d=" M 224.5 0 L 224.5 399.9927673339844" stroke-opacity="0.12" stroke-miterlimit="10" stroke-dasharray=""/><path fill="none" stroke="rgb(0,0,0)" class="dcg-svg-minor-gridline" paint-order="fill stroke markers" d=" M 262.5 0 L 262.5 399.9927673339844" stroke-opacity="0.12" stroke-miterlimit="10" stroke-dasharray=""/><path fill="none" stroke="rgb(0,0,0)" class="dcg-svg-minor-gridline" paint-order="fill stroke markers" d=" M 299.5 0 L 299.5 399.9927673339844" stroke-opacity="0.12" stroke-miterlimit="10" stroke-dasharray=""/><path fill="none" stroke="rgb(0,0,0)" class="dcg-svg-minor-gridline" paint-order="fill stroke markers" d=" M 337.5 0 L 337.5 399.9927673339844" stroke-opacity="0.12" stroke-miterlimit="10" stroke-dasharray=""/><path fill="none" stroke="rgb(0,0,0)" class="dcg-svg-minor-gridline" paint-order="fill stroke markers" d=" M 374.5 0 L 374.5 399.9927673339844" stroke-opacity="0.12" stroke-miterlimit="10" stroke-dasharray=""/><path fill="none" stroke="rgb(0,0,0)" class="dcg-svg-minor-gridline" paint-order="fill stroke markers" d=" M 412.5 0 L 412.5 399.9927673339844" stroke-opacity="0.12" stroke-miterlimit="10" stroke-dasharray=""/><path fill="none" stroke="rgb(0,0,0)" class="dcg-svg-minor-gridline" paint-order="fill stroke markers" d=" M 449.5 0 L 449.5 399.9927673339844" stroke-opacity="0.12" stroke-miterlimit="10" stroke-dasharray=""/><path fill="none" stroke="rgb(0,0,0)" class="dcg-svg-minor-gridline" paint-order="fill stroke markers" d=" M 487.5 0 L 487.5 399.9927673339844" stroke-opacity="0.12" stroke-miterlimit="10" stroke-dasharray=""/><path fill="none" stroke="rgb(0,0,0)" class="dcg-svg-minor-gridline" paint-order="fill stroke markers" d=" M 524.5 0 L 524.5 399.9927673339844" stroke-opacity="0.12" stroke-miterlimit="10" stroke-dasharray=""/><path fill="none" stroke="rgb(0,0,0)" class="dcg-svg-minor-gridline" paint-order="fill stroke markers" d=" M 562.5 0 L 562.5 399.9927673339844" stroke-opacity="0.12" stroke-miterlimit="10" stroke-dasharray=""/><path fill="none" stroke="rgb(0,0,0)" class="dcg-svg-minor-gridline" paint-order="fill stroke markers" d=" M 0 387.5 L 599.9981689453125 387.5" stroke-opacity="0.12" stroke-miterlimit="10" stroke-dasharray=""/><path fill="none" stroke="rgb(0,0,0)" class="dcg-svg-minor-gridline" paint-order="fill stroke markers" d=" M 0 312.5 L 599.9981689453125 312.5" stroke-opacity="0.12" stroke-miterlimit="10" stroke-dasharray=""/><path fill="none" stroke="rgb(0,0,0)" class="dcg-svg-minor-gridline" paint-order="fill stroke markers" d=" M 0 274.5 L 599.9981689453125 274.5" stroke-opacity="0.12" stroke-miterlimit="10" stroke-dasharray=""/><path fill="none" stroke="rgb(0,0,0)" class="dcg-svg-minor-gridline" paint-order="fill stroke markers" d=" M 0 237.5 L 599.9981689453125 237.5" stroke-opacity="0.12" stroke-miterlimit="10" stroke-dasharray=""/><path fill="none" stroke="rgb(0,0,0)" class="dcg-svg-minor-gridline" paint-order="fill stroke markers" d=" M 0 199.5 L 599.9981689453125 199.5" stroke-opacity="0.12" stroke-miterlimit="10" stroke-dasharray=""/><path fill="none" stroke="rgb(0,0,0)" class="dcg-svg-minor-gridline" paint-order="fill stroke markers" d=" M 0 162.5 L 599.9981689453125 162.5" stroke-opacity="0.12" stroke-miterlimit="10" stroke-dasharray=""/><path fill="none" stroke="rgb(0,0,0)" class="dcg-svg-minor-gridline" paint-order="fill stroke markers" d=" M 0 124.5 L 599.9981689453125 124.5" stroke-opacity="0.12" stroke-miterlimit="10" stroke-dasharray=""/><path fill="none" stroke="rgb(0,0,0)" class="dcg-svg-minor-gridline" paint-order="fill stroke markers" d=" M 0 87.5 L 599.9981689453125 87.5" stroke-opacity="0.12" stroke-miterlimit="10" stroke-dasharray=""/><path fill="none" stroke="rgb(0,0,0)" class="dcg-svg-minor-gridline" paint-order="fill stroke markers" d=" M 0 49.5 L 599.9981689453125 49.5" stroke-opacity="0.12" stroke-miterlimit="10" stroke-dasharray=""/><path fill="none" stroke="rgb(0,0,0)" class="dcg-svg-minor-gridline" paint-order="fill stroke markers" d=" M 0 12.5 L 599.9981689453125 12.5" stroke-opacity="0.12" stroke-miterlimit="10" stroke-dasharray=""/><path fill="none" stroke="rgb(0,0,0)" class="dcg-svg-major-gridline" paint-order="fill stroke markers" d=" M 224.5 0 L 224.5 399.9927673339844" stroke-opacity="0.31818181818181823" stroke-miterlimit="10" stroke-dasharray=""/><path fill="none" stroke="rgb(0,0,0)" class="dcg-svg-major-gridline" paint-order="fill stroke markers" d=" M 374.5 0 L 374.5 399.9927673339844" stroke-opacity="0.31818181818181823" stroke-miterlimit="10" stroke-dasharray=""/><path fill="none" stroke="rgb(0,0,0)" class="dcg-svg-major-gridline" paint-order="fill stroke markers" d=" M 524.5 0 L 524.5 399.9927673339844" stroke-opacity="0.31818181818181823" stroke-miterlimit="10" stroke-dasharray=""/><path fill="none" stroke="rgb(0,0,0)" class="dcg-svg-major-gridline" paint-order="fill stroke markers" d=" M 0 199.5 L 599.9981689453125 199.5" stroke-opacity="0.31818181818181823" stroke-miterlimit="10" stroke-dasharray=""/><path fill="none" stroke="rgb(0,0,0)" class="dcg-svg-major-gridline" paint-order="fill stroke markers" d=" M 0 49.5 L 599.9981689453125 49.5" stroke-opacity="0.31818181818181823" stroke-miterlimit="10" stroke-dasharray=""/></g></g><g id="axis-3550d603"><g id="yaxis-3550d603"><title>Y axis</title><g><path fill="none" stroke="rgb(0,0,0)" class="dcg-svg-axis-line" paint-order="fill stroke markers" d=" M 74.75 0 L 74.75 399.9927673339844" stroke-opacity="0.9" stroke-miterlimit="10" stroke-width="1.5" stroke-dasharray=""/></g></g><g id="xaxis-3550d603"><title>X axis</title><g><path fill="none" stroke="rgb(0,0,0)" class="dcg-svg-axis-line" paint-order="fill stroke markers" d=" M 0 349.75 L 599.9981689453125 349.75" stroke-opacity="0.9" stroke-miterlimit="10" stroke-width="1.5" stroke-dasharray=""/></g></g><g><g class="dcg-svg-axis-value"><text fill="none" stroke="#ffffff" font-family="Arial" font-size="14px" font-style="normal" font-weight="normal" text-decoration="normal" x="66.10670471191406" y="365.8039259033203" text-anchor="middle" stroke-miterlimit="2" stroke-width="3" stroke-dasharray="">0</text><text fill="#000000" stroke="none" font-family="Arial" font-size="14px" font-style="normal" font-weight="normal" text-decoration="normal" x="66.10670471191406" y="365.8039259033203" text-anchor="middle">0</text></g><g class="dcg-svg-axis-value"><text fill="none" stroke="#ffffff" font-family="Arial" font-size="14px" font-style="normal" font-weight="normal" text-decoration="normal" x="224.9993133544922" y="365.8039259033203" text-anchor="middle" stroke-miterlimit="2" stroke-width="3" stroke-dasharray="">2</text><text fill="#000000" stroke="none" font-family="Arial" font-size="14px" font-style="normal" font-weight="normal" text-decoration="normal" x="224.9993133544922" y="365.8039259033203" text-anchor="middle">2</text></g><g class="dcg-svg-axis-value"><text fill="none" stroke="#ffffff" font-family="Arial" font-size="14px" font-style="normal" font-weight="normal" text-decoration="normal" x="374.9988555908203" y="365.8039259033203" text-anchor="middle" stroke-miterlimit="2" stroke-width="3" stroke-dasharray="">4</text><text fill="#000000" stroke="none" font-family="Arial" font-size="14px" font-style="normal" font-weight="normal" text-decoration="normal" x="374.9988555908203" y="365.8039259033203" text-anchor="middle">4</text></g><g class="dcg-svg-axis-value"><text fill="none" stroke="#ffffff" font-family="Arial" font-size="14px" font-style="normal" font-weight="normal" text-decoration="normal" x="524.9983978271484" y="365.8039259033203" text-anchor="middle" stroke-miterlimit="2" stroke-width="3" stroke-dasharray="">6</text><text fill="#000000" stroke="none" font-family="Arial" font-size="14px" font-style="normal" font-weight="normal" text-decoration="normal" x="524.9983978271484" y="365.8039259033203" text-anchor="middle">6</text></g><g class="dcg-svg-axis-value"><text fill="none" stroke="#ffffff" font-family="Arial" font-size="14px" font-style="normal" font-weight="normal" text-decoration="normal" x="66.10670471191406" y="203.80438366699218" text-anchor="middle" stroke-miterlimit="2" stroke-width="3" stroke-dasharray="">2</text><text fill="#000000" stroke="none" font-family="Arial" font-size="14px" font-style="normal" font-weight="normal" text-decoration="normal" x="66.10670471191406" y="203.80438366699218" text-anchor="middle">2</text></g><g class="dcg-svg-axis-value"><text fill="none" stroke="#ffffff" font-family="Arial" font-size="14px" font-style="normal" font-weight="normal" text-decoration="normal" x="66.10670471191406" y="53.80484143066406" text-anchor="middle" stroke-miterlimit="2" stroke-width="3" stroke-dasharray="">4</text><text fill="#000000" stroke="none" font-family="Arial" font-size="14px" font-style="normal" font-weight="normal" text-decoration="normal" x="66.10670471191406" y="53.80484143066406" text-anchor="middle">4</text></g></g></g></g><g id="expressions-3550d603"><g id="sketch-3550d603"><title>Expression 1</title><path fill="#2d70b3" stroke="none" paint-order="stroke fill markers" d="" fill-opacity="0.4"/><g><path fill="none" stroke="#2d70b3" class="dcg-svg-curve" paint-order="fill stroke markers" d=" M 0 349.9959259033203 L 0 349.9959259033203 L 74.99977111816406 349.9209261322021 L 299.99908447265625 49.99684143066406 L 525.1448817551136 349.9959259033203 L 599.9981689453125 349.9959259033203" stroke-linecap="round" stroke-linejoin="round" stroke-miterlimit="10" stroke-width="2.5" stroke-dasharray=""/></g></g><g id="sketch-3550d603"><title>Expression 2</title><path fill="#388c46" stroke="none" paint-order="stroke fill markers" d="" fill-opacity="0.4"/><g><path fill="none" stroke="#388c46" class="dcg-svg-curve" paint-order="fill stroke markers" d=" M 0 349.9949210169454 L 0 349.9949210169454 L 60.79083010554314 349.84423836743053 L 77.48999789357185 349.5177450901884 L 88.62277641892433 349.02292279357914 L 97.26532816886902 348.35743868498116 L 104.44304063916206 347.5204633436946 L 110.74184954166412 346.4933837778528 L 116.30823880434036 345.2916112259699 L 121.43517628312111 343.8826481394661 L 126.26914590597153 342.23622315153324 L 130.81014767289162 340.36062924281464 L 135.20466551184654 338.19721798816886 L 139.4526994228363 335.738138359766 L 143.70073333382607 332.87604833250884 L 147.94876724481583 329.5699532744928 L 152.1968011558056 325.77997135317617 L 156.5913189947605 321.31022439277655 L 160.98583683371544 316.245370337628 L 165.2338707447052 310.7544768287313 L 169.48190465569496 304.65766311822426 L 173.72993856668472 297.94276766680565 L 178.12445640563965 290.34393222961495 L 182.66545817255974 281.80654831453194 L 187.49942779541016 271.98521728887977 L 192.6263652741909 260.80532147189814 L 198.3392384648323 247.54013070574305 L 205.07749915122986 231.038243575739 L 215.47785803675652 204.59019943662716 L 225.87821692228317 178.41627530483856 L 232.03054189682007 163.78493868614004 L 237.15747937560081 152.39733386769984 L 241.6984811425209 143.08281906277423 L 245.8000311255455 135.3902165148358 L 249.60861325263977 128.9213447132495 L 253.27071145176888 123.35433996129532 L 256.7863257229328 118.63783941781747 L 260.1554560661316 114.70849891455867 L 263.52458640933037 111.36177583628648 L 266.747232824564 108.70265962921081 L 269.8233953118324 106.65024212617664 L 272.7530738711357 105.12463727767312 L 275.53626850247383 104.04919966050687 L 278.1729792058468 103.3521049345758 L 280.80968990921974 102.9527120359889 L 283.59288454055786 102.8357720475737 L 286.376079171896 103.01118669896903 L 289.30575773119926 103.48764667360086 L 292.5284041464329 104.32678557462529 L 295.89753448963165 105.52034873346798 L 299.7061166167259 107.21102905963744 L 303.9541505277157 109.46244353473827 L 308.7881201505661 112.41370289283225 L 314.35450941324234 116.2273975921326 L 320.79980224370956 121.09192021161954 L 327.83103078603745 126.87386837652542 L 334.8622593283653 133.154358418012 L 341.4540360867977 139.56425479991665 L 347.7528449892998 146.25892878348242 L 353.61220210790634 153.07739362360087 L 359.1785913705826 160.1523722813347 L 364.59849670529366 167.64575264973254 L 370.01840204000473 175.75544612564812 L 375.58479130268097 184.71666231500737 L 381.5906323492527 195.05436348398217 L 388.32889303565025 207.3594638543458 L 396.6784769296646 223.35189859056237 L 419.2370018362999 266.95128034260955 L 425.8287785947323 278.7426982821962 L 431.68813571333885 288.5438860436744 L 437.1080410480499 296.94416846061335 L 442.2349785268307 304.2467473453289 L 447.21543207764626 310.7125340728853 L 452.0494017004967 316.38578901504263 L 456.8833713233471 321.46929857555153 L 461.7173409461975 325.97829557527683 L 466.40482664108276 329.82547051560834 L 471.092312335968 333.1853882056672 L 475.6333141028881 336.00828357088164 L 480.32079979777336 338.51321025108905 L 485.0082854926586 340.64192870129165 L 489.84225511550903 342.485683424668 L 494.9691925942898 344.09897793083485 L 500.38909792900085 345.4750638448763 L 506.2484550476074 346.643266617264 L 512.6937478780746 347.6164319226875 L 520.0179442763329 348.41277618826206 L 528.5140120983124 349.0323126732301 L 539.0608549118042 349.4938499166187 L 553.2697959244251 349.7999448445408 L 575.9748047590256 349.95836618584383 L 599.9981689453125 349.99056865512523" stroke-linecap="round" stroke-linejoin="round" stroke-miterlimit="10" stroke-width="2.5" stroke-dasharray=""/></g></g><g id="sketch-3550d603"><title>Expression 3</title><path fill="#000000" stroke="none" paint-order="stroke fill markers" d="" fill-opacity="0.4"/><g><path fill="none" stroke="#000000" class="dcg-svg-curve" paint-order="fill stroke markers" d=" M 314.99903869628906 405.4927673339844 L 314.99903869628906 394.4927673339844 M 314.99903869628906 387.4927673339844 L 314.99903869628906 376.4927673339844 M 314.99903869628906 369.4927673339844 L 314.99903869628906 358.4927673339844 M 314.99903869628906 351.4927673339844 L 314.99903869628906 340.4927673339844 M 314.99903869628906 333.4927673339844 L 314.99903869628906 322.4927673339844 M 314.99903869628906 315.4927673339844 L 314.99903869628906 304.4927673339844 M 314.99903869628906 297.4927673339844 L 314.99903869628906 286.4927673339844 M 314.99903869628906 279.4927673339844 L 314.99903869628906 268.4927673339844 M 314.99903869628906 261.4927673339844 L 314.99903869628906 250.49276733398438 M 314.99903869628906 243.49276733398438 L 314.99903869628906 232.49276733398438 M 314.99903869628906 225.49276733398438 L 314.99903869628906 214.49276733398438 M 314.99903869628906 207.49276733398438 L 314.99903869628906 196.49276733398438 M 314.99903869628906 189.49276733398438 L 314.99903869628906 178.49276733398438 M 314.99903869628906 171.49276733398438 L 314.99903869628906 160.49276733398438 M 314.99903869628906 153.49276733398438 L 314.99903869628906 142.49276733398438 M 314.99903869628906 135.49276733398438 L 314.99903869628906 124.49276733398438 M 314.99903869628906 117.49276733398438 L 314.99903869628906 106.49276733398438 M 314.99903869628906 99.49276733398438 L 314.99903869628906 88.49276733398438 M 314.99903869628906 81.49276733398438 L 314.99903869628906 70.49276733398438 M 314.99903869628906 63.492767333984375 L 314.99903869628906 52.492767333984375 M 314.99903869628906 45.492767333984375 L 314.99903869628906 34.492767333984375 M 314.99903869628906 27.492767333984375 L 314.99903869628906 16.492767333984375 M 314.99903869628906 9.492767333984375 L 314.99903869628906 -1.507232666015625" stroke-linecap="round" stroke-linejoin="round" stroke-miterlimit="10" stroke-width="2.5" stroke-dasharray=""/></g></g><g id="sketch-3550d603"><title>\alpha g(x)</title><path fill="none" stroke="#6042a6" class="dcg-svg-point" paint-order="fill stroke markers" d=" M 314.89903869628904 70.14677963256835 L 314.89903869628904 70.34677963256834 L 315.0990386962891 70.34677963256834 L 315.0990386962891 70.14677963256835" stroke-linecap="round" stroke-linejoin="round" stroke-miterlimit="10" stroke-width="8" stroke-dasharray=""/></g><g id="sketch-3550d603"><title>Y</title><path fill="none" stroke="#0000ff" class="dcg-svg-point" paint-order="fill stroke markers" d=" M 314.89903869628904 184.89642944335938 L 314.89903869628904 185.09642944335937 L 315.0990386962891 185.09642944335937 L 315.0990386962891 184.89642944335938" stroke-linecap="round" stroke-linejoin="round" stroke-miterlimit="10" stroke-width="8" stroke-dasharray=""/></g><g id="sketch-3550d603"><title>x</title><path fill="none" stroke="#000000" class="dcg-svg-point" paint-order="fill stroke markers" d=" M 314.89903869628904 349.8959259033203 L 314.89903869628904 350.09592590332034 L 315.0990386962891 350.09592590332034 L 315.0990386962891 349.8959259033203" stroke-linecap="round" stroke-linejoin="round" stroke-miterlimit="10" stroke-width="8" stroke-dasharray=""/></g><g id="sketch-3550d603"><title>Expression 7</title><path fill="#6042a6" stroke="none" paint-order="stroke fill markers" d="" fill-opacity="0.4"/><g><path fill="none" stroke="#6042a6" class="dcg-svg-curve" paint-order="fill stroke markers" d=" M 0 349.9959259033203 L 0 349.9959259033203 L 599.9981689453125 349.9959259033203" stroke-linecap="round" stroke-linejoin="round" stroke-miterlimit="10" stroke-width="2.5" stroke-dasharray=""/></g><path fill="#6042a6" stroke="none" paint-order="stroke fill markers" d="" fill-opacity="0.4"/><g><path fill="none" stroke="#6042a6" class="dcg-svg-curve" paint-order="fill stroke markers" d=" M 0 349.9959259033203 L 0 349.9959259033203 L 74.99977111816406 349.9209261322021 L 299.99908447265625 49.99684143066406 L 525.1448817551136 349.9959259033203 L 599.9981689453125 349.9959259033203" stroke-linecap="round" stroke-linejoin="round" stroke-miterlimit="10" stroke-width="2.5" stroke-dasharray=""/></g><path fill="#6042a6" stroke="none" class="dcg-svg-region" paint-order="stroke fill markers" d=" M 0 349.9959259033203 L 599.9981689453125 349.9959259033203 L 599.9981689453125 349.9959259033203 L 525.1448817551136 349.9959259033203 L 299.99908447265625 49.99684143066406 L 74.99977111816406 349.9209261322021 L 0 349.9959259033203 L 0 349.9959259033203" fill-opacity="0.4"/></g></g><g id="labels-3550d603"><g transform="rotate(0,0,0) translate(314.99903869628906,70.24677963256835)"><g class="dcg-svg-label"><g transform="translate(9.996627807617188,-9.22066421508788)"><g><text fill="none" stroke="#FFF" font-family="arial, sans-serif" font-size="15.4px" font-style="normal" font-weight="400" text-decoration="normal" x="0" y="13.849906872558593" text-anchor="start" stroke-linecap="round" stroke-linejoin="round" stroke-miterlimit="2" stroke-width="3" stroke-dasharray="">\alpha g(x)</text></g></g><g transform="translate(9.996627807617188,-9.22066421508788)"><g><text fill="rgb(96, 66, 166)" stroke="none" font-family="arial, sans-serif" font-size="15.4px" font-style="normal" font-weight="400" text-decoration="normal" x="0" y="13.849906872558593" text-anchor="start">\alpha g(x)</text></g></g></g></g><g transform="rotate(0,0,0) translate(314.99903869628906,184.99642944335938)"><g class="dcg-svg-label"><g transform="translate(-15.275375366210938,4.998870849609375)"><g><text fill="none" stroke="#FFF" font-family="arial, sans-serif" font-size="15.4px" font-style="normal" font-weight="400" text-decoration="normal" x="0" y="13.849914501953124" text-anchor="start" stroke-linecap="round" stroke-linejoin="round" stroke-miterlimit="2" stroke-width="3" stroke-dasharray="">Y</text></g></g><g transform="translate(-15.275375366210938,4.998870849609375)"><g><text fill="rgb(0, 0, 255)" stroke="none" font-family="arial, sans-serif" font-size="15.4px" font-style="normal" font-weight="400" text-decoration="normal" x="0" y="13.849914501953124" text-anchor="start">Y</text></g></g></g></g><g transform="rotate(0,0,0) translate(314.99903869628906,349.9959259033203)"><g class="dcg-svg-label"><g transform="translate(-12.707382202148438,5.0022735595703125)"><g><text fill="none" stroke="#FFF" font-family="arial, sans-serif" font-size="15.4px" font-style="normal" font-weight="400" text-decoration="normal" x="0" y="13.849914501953124" text-anchor="start" stroke-linecap="round" stroke-linejoin="round" stroke-miterlimit="2" stroke-width="3" stroke-dasharray="">x</text></g></g><g transform="translate(-12.707382202148438,5.0022735595703125)"><g><text fill="rgb(0, 0, 0)" stroke="none" font-family="arial, sans-serif" font-size="15.4px" font-style="normal" font-weight="400" text-decoration="normal" x="0" y="13.849914501953124" text-anchor="start">x</text></g></g></g></g></g></g></svg>