<svg version="1.1" xmlns="http://www.w3.org/2000/svg" xmlns:xlink="http://www.w3.org/1999/xlink" width="599" height="399"><defs/><g transform="scale(1,1)"><g id="background-4ffc960c"><rect fill="white" stroke="none" x="0" y="0" width="599.9927368164062" height="399.9951477050781" class="dcg-svg-background"/></g><g id="background-images-4ffc960c"/><g id="graphpaper-4ffc960c"><g id="grid-4ffc960c"><g><path fill="none" stroke="rgb(0,0,0)" class="dcg-svg-minor-gridline" paint-order="fill stroke markers" d=" M 29.5 0 L 29.5 399.9951477050781" stroke-opacity="0.12" stroke-miterlimit="10" stroke-dasharray=""/><path fill="none" stroke="rgb(0,0,0)" class="dcg-svg-minor-gridline" paint-order="fill stroke markers" d=" M 59.5 0 L 59.5 399.9951477050781" stroke-opacity="0.12" stroke-miterlimit="10" stroke-dasharray=""/><path fill="none" stroke="rgb(0,0,0)" class="dcg-svg-minor-gridline" paint-order="fill stroke markers" d=" M 89.5 0 L 89.5 399.9951477050781" stroke-opacity="0.12" stroke-miterlimit="10" stroke-dasharray=""/><path fill="none" stroke="rgb(0,0,0)" class="dcg-svg-minor-gridline" paint-order="fill stroke markers" d=" M 119.5 0 L 119.5 399.9951477050781" stroke-opacity="0.12" stroke-miterlimit="10" stroke-dasharray=""/><path fill="none" stroke="rgb(0,0,0)" class="dcg-svg-minor-gridline" paint-order="fill stroke markers" d=" M 149.5 0 L 149.5 399.9951477050781" stroke-opacity="0.12" stroke-miterlimit="10" stroke-dasharray=""/><path fill="none" stroke="rgb(0,0,0)" class="dcg-svg-minor-gridline" paint-order="fill stroke markers" d=" M 179.5 0 L 179.5 399.9951477050781" stroke-opacity="0.12" stroke-miterlimit="10" stroke-dasharray=""/><path fill="none" stroke="rgb(0,0,0)" class="dcg-svg-minor-gridline" paint-order="fill stroke markers" d=" M 209.5 0 L 209.5 399.9951477050781" stroke-opacity="0.12" stroke-miterlimit="10" stroke-dasharray=""/><path fill="none" stroke="rgb(0,0,0)" class="dcg-svg-minor-gridline" paint-order="fill stroke markers" d=" M 239.5 0 L 239.5 399.9951477050781" stroke-opacity="0.12" stroke-miterlimit="10" stroke-dasharray=""/><path fill="none" stroke="rgb(0,0,0)" class="dcg-svg-minor-gridline" paint-order="fill stroke markers" d=" M 269.5 0 L 269.5 399.9951477050781" stroke-opacity="0.12" stroke-miterlimit="10" stroke-dasharray=""/><path fill="none" stroke="rgb(0,0,0)" class="dcg-svg-minor-gridline" paint-order="fill stroke markers" d=" M 329.5 0 L 329.5 399.9951477050781" stroke-opacity="0.12" stroke-miterlimit="10" stroke-dasharray=""/><path fill="none" stroke="rgb(0,0,0)" class="dcg-svg-minor-gridline" paint-order="fill stroke markers" d=" M 359.5 0 L 359.5 399.9951477050781" stroke-opacity="0.12" stroke-miterlimit="10" stroke-dasharray=""/><path fill="none" stroke="rgb(0,0,0)" class="dcg-svg-minor-gridline" paint-order="fill stroke markers" d=" M 389.5 0 L 389.5 399.9951477050781" stroke-opacity="0.12" stroke-miterlimit="10" stroke-dasharray=""/><path fill="none" stroke="rgb(0,0,0)" class="dcg-svg-minor-gridline" paint-order="fill stroke markers" d=" M 419.5 0 L 419.5 399.9951477050781" stroke-opacity="0.12" stroke-miterlimit="10" stroke-dasharray=""/><path fill="none" stroke="rgb(0,0,0)" class="dcg-svg-minor-gridline" paint-order="fill stroke markers" d=" M 449.5 0 L 449.5 399.9951477050781" stroke-opacity="0.12" stroke-miterlimit="10" stroke-dasharray=""/><path fill="none" stroke="rgb(0,0,0)" class="dcg-svg-minor-gridline" paint-order="fill stroke markers" d=" M 479.5 0 L 479.5 399.9951477050781" stroke-opacity="0.12" stroke-miterlimit="10" stroke-dasharray=""/><path fill="none" stroke="rgb(0,0,0)" class="dcg-svg-minor-gridline" paint-order="fill stroke markers" d=" M 509.5 0 L 509.5 399.9951477050781" stroke-opacity="0.12" stroke-miterlimit="10" stroke-dasharray=""/><path fill="none" stroke="rgb(0,0,0)" class="dcg-svg-minor-gridline" paint-order="fill stroke markers" d=" M 539.5 0 L 539.5 399.9951477050781" stroke-opacity="0.12" stroke-miterlimit="10" stroke-dasharray=""/><path fill="none" stroke="rgb(0,0,0)" class="dcg-svg-minor-gridline" paint-order="fill stroke markers" d=" M 569.5 0 L 569.5 399.9951477050781" stroke-opacity="0.12" stroke-miterlimit="10" stroke-dasharray=""/><path fill="none" stroke="rgb(0,0,0)" class="dcg-svg-minor-gridline" paint-order="fill stroke markers" d=" M 0 327.5 L 599.9927368164062 327.5" stroke-opacity="0.12" stroke-miterlimit="10" stroke-dasharray=""/><path fill="none" stroke="rgb(0,0,0)" class="dcg-svg-minor-gridline" paint-order="fill stroke markers" d=" M 0 290.5 L 599.9927368164062 290.5" stroke-opacity="0.12" stroke-miterlimit="10" stroke-dasharray=""/><path fill="none" stroke="rgb(0,0,0)" class="dcg-svg-minor-gridline" paint-order="fill stroke markers" d=" M 0 254.5 L 599.9927368164062 254.5" stroke-opacity="0.12" stroke-miterlimit="10" stroke-dasharray=""/><path fill="none" stroke="rgb(0,0,0)" class="dcg-svg-minor-gridline" paint-order="fill stroke markers" d=" M 0 218.5 L 599.9927368164062 218.5" stroke-opacity="0.12" stroke-miterlimit="10" stroke-dasharray=""/><path fill="none" stroke="rgb(0,0,0)" class="dcg-svg-minor-gridline" paint-order="fill stroke markers" d=" M 0 181.5 L 599.9927368164062 181.5" stroke-opacity="0.12" stroke-miterlimit="10" stroke-dasharray=""/><path fill="none" stroke="rgb(0,0,0)" class="dcg-svg-minor-gridline" paint-order="fill stroke markers" d=" M 0 145.5 L 599.9927368164062 145.5" stroke-opacity="0.12" stroke-miterlimit="10" stroke-dasharray=""/><path fill="none" stroke="rgb(0,0,0)" class="dcg-svg-minor-gridline" paint-order="fill stroke markers" d=" M 0 109.5 L 599.9927368164062 109.5" stroke-opacity="0.12" stroke-miterlimit="10" stroke-dasharray=""/><path fill="none" stroke="rgb(0,0,0)" class="dcg-svg-minor-gridline" paint-order="fill stroke markers" d=" M 0 72.5 L 599.9927368164062 72.5" stroke-opacity="0.12" stroke-miterlimit="10" stroke-dasharray=""/><path fill="none" stroke="rgb(0,0,0)" class="dcg-svg-minor-gridline" paint-order="fill stroke markers" d=" M 0 36.5 L 599.9927368164062 36.5" stroke-opacity="0.12" stroke-miterlimit="10" stroke-dasharray=""/><path fill="none" stroke="rgb(0,0,0)" class="dcg-svg-major-gridline" paint-order="fill stroke markers" d=" M 149.5 0 L 149.5 399.9951477050781" stroke-opacity="0.31818181818181823" stroke-miterlimit="10" stroke-dasharray=""/><path fill="none" stroke="rgb(0,0,0)" class="dcg-svg-major-gridline" paint-order="fill stroke markers" d=" M 449.5 0 L 449.5 399.9951477050781" stroke-opacity="0.31818181818181823" stroke-miterlimit="10" stroke-dasharray=""/><path fill="none" stroke="rgb(0,0,0)" class="dcg-svg-major-gridline" paint-order="fill stroke markers" d=" M 0 181.5 L 599.9927368164062 181.5" stroke-opacity="0.31818181818181823" stroke-miterlimit="10" stroke-dasharray=""/></g></g><g id="axis-4ffc960c"><g id="yaxis-4ffc960c"><title>Y axis</title><g><path fill="none" stroke="rgb(0,0,0)" class="dcg-svg-axis-line" paint-order="fill stroke markers" d=" M 299.75 0 L 299.75 399.9951477050781" stroke-opacity="0.9" stroke-miterlimit="10" stroke-width="1.5" stroke-dasharray=""/></g></g><g id="xaxis-4ffc960c"><title>X axis</title><g><path fill="none" stroke="rgb(0,0,0)" class="dcg-svg-axis-line" paint-order="fill stroke markers" d=" M 0 363.75 L 599.9927368164062 363.75" stroke-opacity="0.9" stroke-miterlimit="10" stroke-width="1.5" stroke-dasharray=""/></g></g><g><g class="dcg-svg-axis-value"><text fill="none" stroke="#ffffff" font-family="Arial" font-size="14px" font-style="normal" font-weight="normal" text-decoration="normal" x="291.1033020019531" y="379.4399524591619" text-anchor="middle" stroke-miterlimit="2" stroke-width="3" stroke-dasharray="">0</text><text fill="#000000" stroke="none" font-family="Arial" font-size="14px" font-style="normal" font-weight="normal" text-decoration="normal" x="291.1033020019531" y="379.4399524591619" text-anchor="middle">0</text></g><g class="dcg-svg-axis-value dcg-svg-offcenter-axis-value"><text fill="none" stroke="#ffffff" font-family="Arial" font-size="14px" font-style="normal" font-weight="normal" text-decoration="normal" x="9.22412109375" y="379.4399524591619" text-anchor="middle" stroke-miterlimit="2" stroke-width="3" stroke-dasharray="">-2</text><text fill="#000000" stroke="none" font-family="Arial" font-size="14px" font-style="normal" font-weight="normal" text-decoration="normal" x="9.22412109375" y="379.4399524591619" text-anchor="middle">-2</text></g><g class="dcg-svg-axis-value"><text fill="none" stroke="#ffffff" font-family="Arial" font-size="14px" font-style="normal" font-weight="normal" text-decoration="normal" x="147.66712951660156" y="379.4399524591619" text-anchor="middle" stroke-miterlimit="2" stroke-width="3" stroke-dasharray="">-1</text><text fill="#000000" stroke="none" font-family="Arial" font-size="14px" font-style="normal" font-weight="normal" text-decoration="normal" x="147.66712951660156" y="379.4399524591619" text-anchor="middle">-1</text></g><g class="dcg-svg-axis-value"><text fill="none" stroke="#ffffff" font-family="Arial" font-size="14px" font-style="normal" font-weight="normal" text-decoration="normal" x="449.9945526123047" y="379.4399524591619" text-anchor="middle" stroke-miterlimit="2" stroke-width="3" stroke-dasharray="">1</text><text fill="#000000" stroke="none" font-family="Arial" font-size="14px" font-style="normal" font-weight="normal" text-decoration="normal" x="449.9945526123047" y="379.4399524591619" text-anchor="middle">1</text></g><g class="dcg-svg-axis-value dcg-svg-offcenter-axis-value"><text fill="none" stroke="#ffffff" font-family="Arial" font-size="14px" font-style="normal" font-weight="normal" text-decoration="normal" x="593.0996704101562" y="379.4399524591619" text-anchor="middle" stroke-miterlimit="2" stroke-width="3" stroke-dasharray="">2</text><text fill="#000000" stroke="none" font-family="Arial" font-size="14px" font-style="normal" font-weight="normal" text-decoration="normal" x="593.0996704101562" y="379.4399524591619" text-anchor="middle">2</text></g><g class="dcg-svg-axis-value"><text fill="none" stroke="#ffffff" font-family="Arial" font-size="14px" font-style="normal" font-weight="normal" text-decoration="normal" x="285.2654113769531" y="185.62397622958093" text-anchor="middle" stroke-miterlimit="2" stroke-width="3" stroke-dasharray="">0.5</text><text fill="#000000" stroke="none" font-family="Arial" font-size="14px" font-style="normal" font-weight="normal" text-decoration="normal" x="285.2654113769531" y="185.62397622958093" text-anchor="middle">0.5</text></g><g class="dcg-svg-axis-value dcg-svg-offcenter-axis-value"><text fill="none" stroke="#ffffff" font-family="Arial" font-size="14px" font-style="normal" font-weight="normal" text-decoration="normal" x="291.1033020019531" y="13.808" text-anchor="middle" stroke-miterlimit="2" stroke-width="3" stroke-dasharray="">1</text><text fill="#000000" stroke="none" font-family="Arial" font-size="14px" font-style="normal" font-weight="normal" text-decoration="normal" x="291.1033020019531" y="13.808" text-anchor="middle">1</text></g></g></g></g><g id="expressions-4ffc960c"><g id="sketch-4ffc960c"><title>Expression 1</title><path fill="#2d70b3" stroke="none" paint-order="stroke fill markers" d="" fill-opacity="0.4"/><g><path fill="none" stroke="#2d70b3" class="dcg-svg-curve" paint-order="fill stroke markers" d=" M 39.575839997818896 -5.5 L 39.575839997818896 -5.5 L 42.186989307403564 16.498625623902285 L 46.5814673602581 51.067565401245076 L 50.97594541311264 83.27597616606846 L 55.22394086420536 112.25334254489479 L 59.47193631529808 139.19236576841027 L 63.57344916462898 163.34353934734474 L 67.67496201395988 185.74017859194208 L 71.62999226152897 205.7405085603565 L 75.58502250909805 224.23562130729664 L 79.39357015490532 240.67945951724568 L 83.20211780071259 255.83647155938615 L 87.01066544651985 269.75872812139727 L 90.6727304905653 282.02871991435427 L 94.33479553461075 293.2491139144978 L 97.85037797689438 303.07400559850794 L 101.36596041917801 312.01025259238804 L 104.73506025969982 319.77501072554946 L 108.10416010022163 326.7905639731592 L 111.47325994074345 333.0888177310591 L 114.84235978126526 338.701122098758 L 118.06497702002525 343.4559548297088 L 121.28759425878525 347.6378428549179 L 124.51021149754524 351.2727961267637 L 127.73282873630524 354.38635975688356 L 131.10192857682705 357.11118821672227 L 134.17806321382523 359.149174334789 L 137.10771524906158 360.7106934756595 L 140.03736728429794 361.9201589625888 L 142.82053671777248 362.7589986971308 L 145.60370615124702 363.31063389632845 L 148.38687558472157 363.58953933308516 L 151.1700450181961 363.6099311806942 L 154.09969705343246 363.36745529411064 L 157.17583169043064 362.83868439925885 L 160.39844892919064 362.0029105545869 L 163.76754876971245 360.8425765489353 L 167.4296138137579 359.27522294258745 L 171.38464406132698 357.25623656028614 L 175.77912211418152 354.6568535294165 L 180.75953057408333 351.31419003442727 L 186.3258694410324 347.1559976610106 L 192.91758652031422 341.76986123021203 L 201.26709482073784 334.4298795824078 L 214.45052897930145 322.24345486750025 L 229.83120216429234 308.1549246450443 L 238.76664087176323 300.49581791852063 L 246.23725356161594 294.57821026648844 L 252.82897064089775 289.81322334558223 L 258.8347573131323 285.89976831792063 L 264.25461357831955 282.75404013715047 L 269.3815046399832 280.14019734903553 L 274.21543049812317 278.01566011922534 L 278.7563911527395 276.3330080456183 L 283.15086920559406 275.002628927352 L 287.3988646566868 274.0018579683866 L 291.5003775060177 273.30632350780576 L 295.6018903553486 272.87995127745944 L 299.7034032046795 272.7246579159559 L 303.6584334522486 272.8323028141427 L 307.7599463015795 273.2103735309711 L 311.8614591509104 273.8580381884349 L 315.9629720002413 274.77237826865365 L 320.210967451334 275.99607895436515 L 324.60544550418854 277.5519521066065 L 329.1464061588049 279.46084698035247 L 333.9803320169449 281.81715456001456 L 339.1072230786085 284.6648025903018 L 344.5270793437958 288.0421234613917 L 350.3863834142685 292.0848187177956 L 356.9781004935503 297.06878282201603 L 364.3022305816412 303.06961841059837 L 373.0911866873503 310.77274668672084 L 385.83517304062843 322.51677273432693 L 402.38770703971386 337.70571485892066 L 410.59073273837566 344.69724166717685 L 417.03596721589565 349.72152123126784 L 422.60230608284473 353.6186305235896 L 427.4362319409847 356.59793226281255 L 431.83070999383926 358.9259112516865 L 435.78574024140835 360.67080368854107 L 439.301322683692 361.9133234419966 L 442.6704225242138 362.80680190363694 L 445.74655716121197 363.3485061191054 L 448.6762091964483 363.6041090961008 L 451.45937862992287 363.5969343283439 L 454.2425480633974 363.33198702766225 L 457.02571749687195 362.7950646312683 L 459.8088869303465 361.97170597676455 L 462.59205636382103 360.8471913021436 L 465.37522579729557 359.40654224578793 L 468.30487783253193 357.531785823715 L 471.3810124695301 355.1483330313305 L 474.6036297082901 352.1725942444022 L 477.8262469470501 348.682351989537 L 481.0488641858101 344.652187929845 L 484.2714814245701 340.05621888769554 L 487.4940986633301 334.86809684471643 L 490.7167159020901 329.06100894179474 L 493.93933314085007 322.6076774790761 L 497.3084329813719 315.1399216343948 L 500.6775328218937 306.9032683536676 L 504.0466326624155 297.86491893825564 L 507.56221510469913 287.54277671399717 L 511.07779754698277 276.2728472367884 L 514.7398625910282 263.4832209574233 L 518.4019276350737 249.57757460579185 L 522.0639926791191 234.51006710446734 L 525.8725403249264 217.55723885283956 L 529.6810879707336 199.24398954935893 L 533.6361182183027 178.7283241476082 L 537.5911484658718 156.6253165619202 L 541.6926613152027 131.95987547810623 L 545.7941741645336 105.44849880062117 L 549.8956870138645 77.0187027421066 L 554.1436824649572 45.47250601995421 L 558.39167791605 11.70607812916478 L 560.4156921180609 -5.5" stroke-linecap="round" stroke-linejoin="round" stroke-miterlimit="10" stroke-width="2.5" stroke-dasharray=""/></g></g></g><g id="labels-4ffc960c"/></g></svg>